<svg width="83" height="99" viewBox="0 0 83 99" fill="none" xmlns="http://www.w3.org/2000/svg">
<path d="M41.5 0C64.4198 0 83 17.237 83 38.5C83 59.763 52.5 88 41.5 99C30 88.5 0 59.763 0 38.5C0 17.237 18.5802 0 41.5 0ZM41.5 10C23.3832 10 10 23.4533 10 38.5C10 41.597 11.1399 45.7518 13.7695 50.8916C16.3484 55.932 20.0203 61.2652 24.2412 66.5332C29.8459 73.5283 36.1008 80.0176 41.3223 85.0977C46.5853 79.8486 52.8819 73.3567 58.6094 66.2979C62.8743 61.0415 66.588 55.7504 69.1973 50.75C71.8577 45.6514 73 41.5536 73 38.5C73 23.4533 59.6168 10 41.5 10ZM41 20C51.4934 20 60 28.5066 60 39C60 49.4934 51.4934 58 41 58C30.5066 58 22 49.4934 22 39C22 28.5066 30.5066 20 41 20ZM41 28C34.9249 28 30 32.9249 30 39C30 45.0751 34.9249 50 41 50C47.0751 50 52 45.0751 52 39C52 32.9249 47.0751 28 41 28Z" fill="white"/>
</svg>
