<svg width="99" height="77" viewBox="0 0 99 77" fill="none" xmlns="http://www.w3.org/2000/svg">
<path d="M86.3359 0.00390625C93.3604 0.182082 99 5.93261 99 13V64L98.9961 64.3359C98.8179 71.3604 93.0674 77 86 77H13C5.93261 77 0.182081 71.3604 0.00390625 64.3359L0 64V13C3.17099e-08 5.93261 5.63962 0.182081 12.6641 0.00390625L13 0H86L86.3359 0.00390625ZM10 64C10 65.6569 11.3431 67 13 67H86C87.6569 67 89 65.6569 89 64V29.0059L49 49.0381L48.9736 48.9854L10 28.1992V64ZM13 10C11.3431 10 10 11.3431 10 13V16.8662L49.1807 37.7627L89 17.8223V13C89 11.3949 87.7394 10.0842 86.1543 10.0039L86 10H13Z" fill="white"/>
</svg>
