<svg width="203" height="39" viewBox="0 0 203 39" fill="none" xmlns="http://www.w3.org/2000/svg">
<path d="M17.5 6.50001L33.5 15L17.5 23L0.999976 15L17.5 6.50001Z" fill="url(#paint0_linear_2_36)"/>
<path d="M0.141838 19.8235C0.48808 19.0709 1.35828 18.7815 2.08617 19.177L17.3489 27.47L32.3557 19.511L32.4944 19.4466C33.1934 19.1625 33.9755 19.4697 34.2932 20.179C34.6317 20.9356 34.3134 21.8634 33.5823 22.2512L17.5579 30.7512L17.512 30.6487L17.3957 30.9026L0.832267 21.9016C0.104705 21.506 -0.204235 20.5759 0.141838 19.8235Z" fill="url(#paint1_linear_2_36)"/>
<path d="M0.444562 27.1643C0.790902 26.4123 1.66124 26.1228 2.3889 26.5178L17.6516 34.8118L32.6584 26.8518L32.7971 26.7884C33.4962 26.5042 34.2782 26.8114 34.5959 27.5208C34.9344 28.2774 34.6161 29.2052 33.885 29.593L17.8606 38.093L17.8147 37.9905L17.6985 38.2434L1.13499 29.2434C0.407349 28.8478 0.0983673 27.9168 0.444562 27.1643Z" fill="url(#paint2_linear_2_36)"/>
<path d="M56.1648 20.8693H51.9034C51.8466 20.4318 51.7301 20.0369 51.554 19.6847C51.3778 19.3324 51.1449 19.0312 50.8551 18.7812C50.5653 18.5312 50.2216 18.3409 49.8239 18.2102C49.4318 18.0739 48.9972 18.0057 48.5199 18.0057C47.6733 18.0057 46.9432 18.2131 46.3295 18.6278C45.7216 19.0426 45.2528 19.642 44.9233 20.4261C44.5994 21.2102 44.4375 22.1591 44.4375 23.2727C44.4375 24.4318 44.6023 25.4034 44.9318 26.1875C45.267 26.9659 45.7358 27.554 46.3381 27.9517C46.946 28.3437 47.6648 28.5398 48.4943 28.5398C48.9602 28.5398 49.3835 28.4801 49.7642 28.3608C50.1506 28.2415 50.4886 28.0682 50.7784 27.8409C51.0739 27.608 51.3153 27.3267 51.5028 26.9972C51.696 26.6619 51.8295 26.2841 51.9034 25.8636L56.1648 25.8892C56.0909 26.6619 55.8665 27.4233 55.4915 28.1733C55.1222 28.9233 54.6136 29.608 53.9659 30.2273C53.3182 30.8409 52.5284 31.3295 51.5966 31.6932C50.6705 32.0568 49.608 32.2386 48.4091 32.2386C46.8295 32.2386 45.4148 31.892 44.1648 31.1989C42.9205 30.5 41.9375 29.483 41.2159 28.1477C40.4943 26.8125 40.1335 25.1875 40.1335 23.2727C40.1335 21.3523 40.5 19.7244 41.233 18.3892C41.9659 17.054 42.9574 16.0398 44.2074 15.3466C45.4574 14.6534 46.858 14.3068 48.4091 14.3068C49.4659 14.3068 50.4432 14.4545 51.3409 14.75C52.2386 15.0398 53.0284 15.4659 53.7102 16.0284C54.392 16.5852 54.946 17.2699 55.3722 18.0824C55.7983 18.8949 56.0625 19.8239 56.1648 20.8693ZM58.5788 32V18.9091H62.6271V21.2955H62.7635C63.0021 20.4318 63.3913 19.7898 63.9311 19.3693C64.4709 18.9432 65.0987 18.7301 65.8146 18.7301C66.0078 18.7301 66.2067 18.7443 66.4112 18.7727C66.6158 18.7955 66.8061 18.8324 66.9822 18.8835V22.5057C66.7834 22.4375 66.522 22.3835 66.1982 22.3438C65.88 22.304 65.5959 22.2841 65.3459 22.2841C64.8516 22.2841 64.4055 22.3949 64.0078 22.6165C63.6158 22.8324 63.3061 23.1364 63.0788 23.5284C62.8572 23.9148 62.7464 24.3693 62.7464 24.892V32H58.5788ZM74.12 32.2472C72.7507 32.2472 71.5689 31.9773 70.5746 31.4375C69.5859 30.892 68.8246 30.1165 68.2905 29.1108C67.7621 28.0994 67.4979 26.8977 67.4979 25.5057C67.4979 24.1534 67.7649 22.9716 68.299 21.9602C68.8331 20.9432 69.5859 20.1534 70.5575 19.5909C71.5291 19.0227 72.674 18.7386 73.9922 18.7386C74.924 18.7386 75.7763 18.8835 76.549 19.1733C77.3217 19.4631 77.9893 19.892 78.5518 20.4602C79.1143 21.0284 79.5518 21.7301 79.8643 22.5653C80.1768 23.3949 80.3331 24.3466 80.3331 25.4205V26.4602H68.9553V24.0398H76.4553C76.4496 23.5966 76.3445 23.2017 76.1399 22.8551C75.9354 22.5085 75.6541 22.2386 75.2962 22.0455C74.9439 21.8466 74.5376 21.7472 74.0774 21.7472C73.6115 21.7472 73.1939 21.8523 72.8246 22.0625C72.4553 22.267 72.1626 22.5483 71.9467 22.9062C71.7308 23.2585 71.6172 23.6591 71.6058 24.108V26.571C71.6058 27.1051 71.7109 27.5739 71.9212 27.9773C72.1314 28.375 72.4297 28.6847 72.8161 28.9062C73.2024 29.1278 73.6626 29.2386 74.1967 29.2386C74.5661 29.2386 74.9013 29.1875 75.2024 29.0852C75.5036 28.983 75.7621 28.8324 75.978 28.6335C76.1939 28.4347 76.3558 28.1903 76.4638 27.9006L80.2905 28.0114C80.1314 28.8693 79.782 29.6165 79.2422 30.2528C78.7081 30.8835 78.0064 31.375 77.1371 31.7273C76.2678 32.0739 75.2621 32.2472 74.12 32.2472ZM86.152 32.2216C85.3168 32.2216 84.5753 32.0824 83.9276 31.804C83.2855 31.5199 82.777 31.0937 82.402 30.5256C82.0327 29.9517 81.848 29.233 81.848 28.3693C81.848 27.642 81.9759 27.0284 82.2315 26.5284C82.4872 26.0284 82.8395 25.6222 83.2884 25.3097C83.7372 24.9972 84.2543 24.7614 84.8395 24.6023C85.4247 24.4375 86.0497 24.3267 86.7145 24.2699C87.4588 24.2017 88.0582 24.1307 88.5128 24.0568C88.9673 23.9773 89.2969 23.8665 89.5014 23.7244C89.7116 23.5767 89.8168 23.3693 89.8168 23.1023V23.0597C89.8168 22.6222 89.6662 22.2841 89.3651 22.0455C89.0639 21.8068 88.6577 21.6875 88.1463 21.6875C87.5952 21.6875 87.152 21.8068 86.8168 22.0455C86.4815 22.2841 86.2685 22.6136 86.1776 23.0341L82.3338 22.8977C82.4474 22.1023 82.7401 21.392 83.2116 20.767C83.6889 20.1364 84.3423 19.642 85.1719 19.2841C86.0071 18.9205 87.0099 18.7386 88.1804 18.7386C89.0156 18.7386 89.7855 18.8381 90.4901 19.0369C91.1946 19.2301 91.8082 19.5142 92.331 19.8892C92.8537 20.2585 93.2571 20.7131 93.5412 21.2528C93.831 21.7926 93.9759 22.4091 93.9759 23.1023V32H90.0554V30.1761H89.9531C89.7202 30.6193 89.4219 30.9943 89.0582 31.3011C88.7003 31.608 88.277 31.8381 87.7884 31.9915C87.3054 32.1449 86.7599 32.2216 86.152 32.2216ZM87.4389 29.4943C87.8878 29.4943 88.2912 29.4034 88.6491 29.2216C89.0128 29.0398 89.3026 28.7898 89.5185 28.4716C89.7344 28.1477 89.8423 27.7727 89.8423 27.3466V26.1023C89.723 26.1648 89.5781 26.2216 89.4077 26.2727C89.2429 26.3239 89.0611 26.3722 88.8622 26.4176C88.6634 26.4631 88.4588 26.5028 88.2486 26.5369C88.0384 26.571 87.8366 26.6023 87.6435 26.6307C87.2514 26.6932 86.9162 26.7898 86.6378 26.9205C86.3651 27.0511 86.1548 27.2216 86.0071 27.4318C85.8651 27.6364 85.794 27.8807 85.794 28.1648C85.794 28.5966 85.9474 28.9261 86.2543 29.1534C86.5668 29.3807 86.9616 29.4943 87.4389 29.4943ZM103.913 18.9091V21.9773H95.6548V18.9091H103.913ZM97.3849 15.7727H101.553V27.8835C101.553 28.1392 101.592 28.3466 101.672 28.5057C101.757 28.6591 101.879 28.7699 102.038 28.8381C102.197 28.9006 102.388 28.9318 102.609 28.9318C102.768 28.9318 102.936 28.9176 103.112 28.8892C103.294 28.8551 103.43 28.8267 103.521 28.804L104.152 31.8125C103.953 31.8693 103.672 31.9403 103.308 32.0256C102.95 32.1108 102.521 32.1648 102.021 32.1875C101.044 32.233 100.206 32.1193 99.5071 31.8466C98.8139 31.5682 98.2827 31.1364 97.9134 30.5511C97.5497 29.9659 97.3736 29.2301 97.3849 28.3438V15.7727ZM106.04 32V18.9091H110.207V32H106.04ZM108.128 17.3835C107.543 17.3835 107.04 17.1903 106.619 16.804C106.199 16.4119 105.989 15.9403 105.989 15.3892C105.989 14.8437 106.199 14.3778 106.619 13.9915C107.04 13.5994 107.543 13.4034 108.128 13.4034C108.719 13.4034 109.222 13.5994 109.636 13.9915C110.057 14.3778 110.267 14.8437 110.267 15.3892C110.267 15.9403 110.057 16.4119 109.636 16.804C109.222 17.1903 108.719 17.3835 108.128 17.3835ZM125.559 18.9091L121.067 32H116.295L111.812 18.9091H116.201L118.613 27.9261H118.749L121.17 18.9091H125.559ZM132.854 32.2472C131.485 32.2472 130.303 31.9773 129.309 31.4375C128.32 30.892 127.559 30.1165 127.025 29.1108C126.496 28.0994 126.232 26.8977 126.232 25.5057C126.232 24.1534 126.499 22.9716 127.033 21.9602C127.567 20.9432 128.32 20.1534 129.292 19.5909C130.263 19.0227 131.408 18.7386 132.727 18.7386C133.658 18.7386 134.511 18.8835 135.283 19.1733C136.056 19.4631 136.724 19.892 137.286 20.4602C137.849 21.0284 138.286 21.7301 138.599 22.5653C138.911 23.3949 139.067 24.3466 139.067 25.4205V26.4602H127.69V24.0398H135.19C135.184 23.5966 135.079 23.2017 134.874 22.8551C134.67 22.5085 134.388 22.2386 134.031 22.0455C133.678 21.8466 133.272 21.7472 132.812 21.7472C132.346 21.7472 131.928 21.8523 131.559 22.0625C131.19 22.267 130.897 22.5483 130.681 22.9062C130.465 23.2585 130.352 23.6591 130.34 24.108V26.571C130.34 27.1051 130.445 27.5739 130.656 27.9773C130.866 28.375 131.164 28.6847 131.55 28.9062C131.937 29.1278 132.397 29.2386 132.931 29.2386C133.3 29.2386 133.636 29.1875 133.937 29.0852C134.238 28.983 134.496 28.8324 134.712 28.6335C134.928 28.4347 135.09 28.1903 135.198 27.9006L139.025 28.0114C138.866 28.8693 138.516 29.6165 137.977 30.2528C137.442 30.8835 136.741 31.375 135.871 31.7273C135.002 32.0739 133.996 32.2472 132.854 32.2472ZM147.648 32H141.196V14.5455H147.639C149.418 14.5455 150.949 14.8949 152.233 15.5938C153.523 16.2869 154.517 17.2869 155.216 18.5938C155.915 19.8949 156.264 21.4517 156.264 23.2642C156.264 25.0824 155.915 26.6449 155.216 27.9517C154.523 29.2585 153.531 30.2614 152.241 30.9602C150.952 31.6534 149.42 32 147.648 32ZM145.415 28.4034H147.486C148.463 28.4034 149.29 28.2386 149.966 27.9091C150.648 27.5739 151.162 27.0312 151.509 26.2812C151.861 25.5256 152.037 24.5199 152.037 23.2642C152.037 22.0085 151.861 21.0085 151.509 20.2642C151.156 19.5142 150.636 18.9744 149.949 18.6449C149.267 18.3097 148.426 18.142 147.426 18.142H145.415V28.4034ZM164.847 32.2472C163.477 32.2472 162.295 31.9773 161.301 31.4375C160.313 30.892 159.551 30.1165 159.017 29.1108C158.489 28.0994 158.224 26.8977 158.224 25.5057C158.224 24.1534 158.491 22.9716 159.026 21.9602C159.56 20.9432 160.312 20.1534 161.284 19.5909C162.256 19.0227 163.401 18.7386 164.719 18.7386C165.651 18.7386 166.503 18.8835 167.276 19.1733C168.048 19.4631 168.716 19.892 169.278 20.4602C169.841 21.0284 170.278 21.7301 170.591 22.5653C170.903 23.3949 171.06 24.3466 171.06 25.4205V26.4602H159.682V24.0398H167.182C167.176 23.5966 167.071 23.2017 166.866 22.8551C166.662 22.5085 166.381 22.2386 166.023 22.0455C165.67 21.8466 165.264 21.7472 164.804 21.7472C164.338 21.7472 163.92 21.8523 163.551 22.0625C163.182 22.267 162.889 22.5483 162.673 22.9062C162.457 23.2585 162.344 23.6591 162.332 24.108V26.571C162.332 27.1051 162.438 27.5739 162.648 27.9773C162.858 28.375 163.156 28.6847 163.543 28.9062C163.929 29.1278 164.389 29.2386 164.923 29.2386C165.293 29.2386 165.628 29.1875 165.929 29.0852C166.23 28.983 166.489 28.8324 166.705 28.6335C166.92 28.4347 167.082 28.1903 167.19 27.9006L171.017 28.0114C170.858 28.8693 170.509 29.6165 169.969 30.2528C169.435 30.8835 168.733 31.375 167.864 31.7273C166.994 32.0739 165.989 32.2472 164.847 32.2472ZM185.536 18.9091L181.044 32H176.271L171.788 18.9091H176.178L178.589 27.9261H178.726L181.146 18.9091H185.536Z" fill="url(#paint3_linear_2_36)"/>
<defs>
<linearGradient id="paint0_linear_2_36" x1="0.999999" y1="15" x2="33" y2="15" gradientUnits="userSpaceOnUse">
<stop stop-color="#F16B79"/>
<stop offset="1" stop-color="#7269FA"/>
</linearGradient>
<linearGradient id="paint1_linear_2_36" x1="0.766857" y1="20.3491" x2="34.0462" y2="20.7742" gradientUnits="userSpaceOnUse">
<stop stop-color="#F16B79"/>
<stop offset="1" stop-color="#7269FA"/>
</linearGradient>
<linearGradient id="paint2_linear_2_36" x1="0.303095" y1="27.3466" x2="34.968" y2="27.3466" gradientUnits="userSpaceOnUse">
<stop stop-color="#F16B79"/>
<stop offset="1" stop-color="#7269FA"/>
</linearGradient>
<linearGradient id="paint3_linear_2_36" x1="42.5" y1="23" x2="182" y2="25" gradientUnits="userSpaceOnUse">
<stop stop-color="#F16B79"/>
<stop offset="1" stop-color="#7269FA"/>
</linearGradient>
</defs>
</svg>
