<svg width="196" height="32" viewBox="0 0 196 32" fill="none" xmlns="http://www.w3.org/2000/svg">
<path d="M0.144964 20.8174C0.495979 20.0674 1.37262 19.7749 2.10297 20.165L16.2368 27.7217L30.1313 20.4707L30.27 20.4072C30.9716 20.1277 31.7602 20.436 32.0825 21.1426C32.4258 21.8965 32.1094 22.8187 31.3764 23.2021L16.4819 30.9746L16.3872 30.7666L16.226 31.1123L0.831487 22.8828C0.101561 22.492 -0.205666 21.5675 0.144964 20.8174ZM0.144964 13.5029C0.495843 12.7526 1.37246 12.4613 2.10297 12.8516L16.2368 20.4072L30.1313 13.1562L30.2709 13.0928C30.9726 12.8133 31.7602 13.1215 32.0825 13.8281C32.4256 14.5822 32.1097 15.5045 31.3764 15.8877L16.4819 23.6602L16.3872 23.4531L16.227 23.7979L0.832464 15.5684C0.102252 15.1778 -0.205616 14.2532 0.144964 13.5029ZM31.2465 7.77148L16.3754 15.0869L1.03949 7.77148L16.3754 0L31.2465 7.77148Z" fill="url(#paint0_linear_32_2)"/>
<path d="M77.9871 12.416C79.283 12.4161 80.4352 12.6885 81.4432 13.2324C82.4508 13.7763 83.2348 14.5519 83.7947 15.5596C84.3707 16.5675 84.659 17.7439 84.659 19.0879C84.659 19.4719 84.6347 19.8721 84.5867 20.2881H75.2986C75.3626 21.12 75.6267 21.76 76.0906 22.208C76.5706 22.6399 77.1547 22.8564 77.8426 22.8564C78.8666 22.8564 79.5793 22.4236 79.9793 21.5596H84.3465C84.1225 22.4395 83.7147 23.2316 83.1229 23.9355C82.547 24.6394 81.8191 25.1918 80.9393 25.5918C80.0593 25.9918 79.075 26.1924 77.9871 26.1924C76.6752 26.1924 75.5072 25.9115 74.4832 25.3516C73.4592 24.7916 72.6588 23.9921 72.0828 22.9521C71.5068 21.9121 71.2186 20.6957 71.2186 19.3037C71.2186 17.912 71.4986 16.6961 72.0584 15.6562C72.6344 14.6163 73.4348 13.8159 74.4588 13.2559C75.4828 12.6959 76.6591 12.416 77.9871 12.416ZM91.9119 12.416C92.8558 12.416 93.6796 12.6083 94.3836 12.9922C95.1036 13.3762 95.6559 13.88 96.0399 14.5039V12.6084H100.144V26H96.0399V24.1035C95.6399 24.7275 95.0801 25.2322 94.3602 25.6162C93.6562 26.0002 92.8315 26.1924 91.8875 26.1924C90.7997 26.1923 89.8078 25.9115 88.9119 25.3516C88.016 24.7756 87.3041 23.9677 86.7762 22.9277C86.2643 21.8718 86.0077 20.6561 86.0076 19.2803C86.0076 17.9043 86.2642 16.6962 86.7762 15.6562C87.3042 14.6163 88.0159 13.8159 88.9119 13.2559C89.8079 12.6959 90.808 12.416 91.9119 12.416ZM140.917 12.416C142.213 12.4161 143.365 12.6885 144.373 13.2324C145.381 13.7763 146.165 14.5519 146.724 15.5596C147.3 16.5675 147.589 17.7439 147.589 19.0879C147.589 19.4719 147.564 19.8721 147.516 20.2881H138.228C138.292 21.12 138.556 21.76 139.02 22.208C139.5 22.6399 140.084 22.8564 140.772 22.8564C141.796 22.8564 142.509 22.4236 142.909 21.5596H147.276C147.052 22.4395 146.644 23.2316 146.053 23.9355C145.477 24.6394 144.749 25.1918 143.869 25.5918C142.989 25.9918 142.005 26.1924 140.917 26.1924C139.605 26.1924 138.437 25.9115 137.413 25.3516C136.389 24.7916 135.589 23.9921 135.013 22.9521C134.437 21.9121 134.148 20.6957 134.148 19.3037C134.148 17.912 134.428 16.6961 134.988 15.6562C135.564 14.6163 136.364 13.8159 137.388 13.2559C138.412 12.6959 139.589 12.416 140.917 12.416ZM173.143 12.416C174.439 12.4161 175.591 12.6885 176.599 13.2324C177.607 13.7763 178.391 14.5519 178.951 15.5596C179.527 16.5675 179.815 17.7439 179.815 19.0879C179.815 19.4719 179.791 19.8721 179.743 20.2881H170.455C170.519 21.12 170.783 21.76 171.247 22.208C171.727 22.6399 172.311 22.8564 172.999 22.8564C174.023 22.8564 174.736 22.4236 175.136 21.5596H179.503C179.279 22.4395 178.871 23.2316 178.279 23.9355C177.703 24.6394 176.975 25.1918 176.096 25.5918C175.216 25.9918 174.231 26.1924 173.143 26.1924C171.831 26.1924 170.663 25.9115 169.639 25.3516C168.615 24.7916 167.815 23.9921 167.239 22.9521C166.663 21.9121 166.375 20.6957 166.375 19.3037C166.375 17.912 166.655 16.6961 167.215 15.6562C167.791 14.6163 168.591 13.8159 169.615 13.2559C170.639 12.6959 171.815 12.416 173.143 12.416ZM51.2645 8.95996C53.2643 8.96004 54.9763 9.48803 56.4002 10.5439C57.8241 11.5999 58.7757 13.0403 59.2557 14.8643H54.744C54.408 14.1603 53.9275 13.6239 53.3035 13.2559C52.6956 12.888 51.9995 12.7041 51.2156 12.7041C49.9518 12.7042 48.9283 13.1445 48.1443 14.0244C47.3604 14.9044 46.9676 16.0799 46.9676 17.5518C46.9676 19.0238 47.3603 20.2001 48.1443 21.0801C48.9282 21.9598 49.9519 22.4003 51.2156 22.4004C51.9996 22.4004 52.6956 22.2156 53.3035 21.8477C53.9275 21.4797 54.408 20.9441 54.744 20.2402H59.2557C58.7757 22.0639 57.8239 23.5037 56.4002 24.5596C54.9763 25.5995 53.2643 26.12 51.2645 26.1201C49.6325 26.1201 48.1679 25.76 46.8719 25.04C45.592 24.3041 44.5919 23.2881 43.8719 21.9922C43.1519 20.6962 42.7918 19.2158 42.7918 17.5518C42.7918 15.888 43.152 14.4082 43.8719 13.1123C44.5918 11.8004 45.592 10.7844 46.8719 10.0645C48.1679 9.32845 49.6325 8.95996 51.2645 8.95996ZM70.0731 16.8076H68.9451C67.9212 16.8076 67.1534 17.0325 66.6414 17.4805C66.1295 17.9125 65.8729 18.6803 65.8729 19.7842V26H61.7693V12.6084H65.8729V14.8398C66.3529 14.1038 66.9536 13.5283 67.6736 13.1123C68.3936 12.6804 69.1932 12.4639 70.0731 12.4639V16.8076ZM107.865 12.6084H110.553V16.0156H107.865V21.3916C107.865 21.7916 107.961 22.0799 108.153 22.2559C108.345 22.4319 108.665 22.5195 109.113 22.5195H110.577V26H108.489C107.001 26 105.841 25.6399 105.009 24.9199C104.177 24.1839 103.761 22.9916 103.761 21.3438V16.0156H102.129V12.6084H103.761V9.34375H107.865V12.6084ZM116.967 26H112.863V12.6084H116.967V26ZM125.965 22.1602L128.869 12.6084H133.237L128.485 26H123.421L118.669 12.6084H123.061L125.965 22.1602ZM156.065 9.15234C157.841 9.15234 159.394 9.50404 160.721 10.208C162.049 10.912 163.074 11.9037 163.794 13.1836C164.53 14.4476 164.897 15.9122 164.897 17.5762C164.897 19.224 164.53 20.6879 163.794 21.9678C163.074 23.2477 162.042 24.2403 160.698 24.9443C159.37 25.6483 157.825 26 156.065 26H149.754V9.15234H156.065ZM188.004 22.1602L190.908 12.6084H195.276L190.524 26H185.46L180.708 12.6084H185.1L188.004 22.1602ZM93.1121 15.9922C92.2962 15.9922 91.6002 16.288 91.0242 16.8799C90.4642 17.4559 90.1844 18.2563 90.1844 19.2803C90.1844 20.3041 90.4643 21.1196 91.0242 21.7275C91.6002 22.3195 92.2961 22.6162 93.1121 22.6162C93.928 22.6162 94.6156 22.3195 95.1756 21.7275C95.7516 21.1355 96.0399 20.3277 96.0399 19.3037C96.0398 18.2798 95.7515 17.4718 95.1756 16.8799C94.6157 16.2881 93.9279 15.9922 93.1121 15.9922ZM153.857 22.4482H155.802C157.354 22.4482 158.562 22.0238 159.426 21.1758C160.29 20.3278 160.721 19.128 160.721 17.5762C160.721 16.0242 160.29 14.8161 159.426 13.9521C158.562 13.0881 157.354 12.6562 155.802 12.6562H153.857V22.4482ZM77.9393 15.7041C77.2515 15.7041 76.6672 15.9039 76.1873 16.3037C75.7234 16.7037 75.4351 17.2719 75.3231 18.0078H80.4588C80.4588 17.304 80.2189 16.7441 79.7391 16.3281C79.2592 15.9122 78.6591 15.7042 77.9393 15.7041ZM140.869 15.7041C140.181 15.7041 139.597 15.9039 139.117 16.3037C138.653 16.7037 138.365 17.2719 138.253 18.0078H143.388C143.388 17.304 143.149 16.7441 142.669 16.3281C142.189 15.9122 141.589 15.7042 140.869 15.7041ZM173.096 15.7041C172.408 15.7041 171.823 15.9039 171.344 16.3037C170.88 16.7037 170.591 17.2719 170.479 18.0078H175.615C175.615 17.304 175.375 16.7441 174.895 16.3281C174.415 15.9122 173.815 15.7042 173.096 15.7041ZM114.927 6.77637C115.631 6.77637 116.207 6.99185 116.655 7.42383C117.119 7.83979 117.351 8.3679 117.351 9.00781C117.351 9.63174 117.119 10.1598 116.655 10.5918C116.207 11.0078 115.631 11.2158 114.927 11.2158C114.207 11.2157 113.615 11.0077 113.151 10.5918C112.703 10.1598 112.479 9.63181 112.479 9.00781C112.479 8.3679 112.703 7.83979 113.151 7.42383C113.615 6.99203 114.207 6.77645 114.927 6.77637Z" fill="url(#paint1_linear_32_2)"/>
<defs>
<linearGradient id="paint0_linear_32_2" x1="0.283314" y1="19.1307" x2="32.7256" y2="19.1307" gradientUnits="userSpaceOnUse">
<stop stop-color="#F16B79"/>
<stop offset="1" stop-color="#7269FA"/>
</linearGradient>
<linearGradient id="paint1_linear_32_2" x1="77.7211" y1="16.8688" x2="192.352" y2="19.077" gradientUnits="userSpaceOnUse">
<stop stop-color="#F16B79"/>
<stop offset="1" stop-color="#7269FA"/>
</linearGradient>
</defs>
</svg>
