<svg width="92" height="95" viewBox="0 0 92 95" fill="none" xmlns="http://www.w3.org/2000/svg">
<path d="M49.0841 29.2021L50.7638 32.4902L36.174 39.9385C39.0867 44.8278 43.379 49.6475 47.672 53.7383C48.578 54.6016 49.4717 55.4184 50.3332 56.1846L56.299 44.8926L56.4103 44.5137L56.4875 44.5361L56.5402 44.4375L57.0236 44.6924L91.3918 54.7383L91.3048 55.0371H91.4894V87.0371H91.4132L91.4894 89.0371L91.6789 94.0332C43.3652 95.8634 12.098 72.8738 1.74625 40.2676L1.64957 40.293C1.50849 39.7494 1.3783 39.2069 1.25699 38.666C1.23395 38.5876 1.21046 38.5092 1.18765 38.4307L1.20328 38.4258C-1.85211 24.4834 1.50463 11.4577 4.67594 0.183594L4.7189 0.195312V0.0371094H35.9728L36.0558 0L49.0841 29.2021ZM12.3986 10.0371C10.2505 18.7873 9.04447 27.3353 10.9347 36.1201C18.7199 62.2055 42.2119 82.5137 81.4894 84.043V62.2607L61.5168 56.4229L58.2736 62.5615C58.4687 62.6955 58.4369 62.6728 58.2619 62.584L57.4084 64.1992L55.9894 67.0371L53.7541 71.5098C53.1859 71.2257 52.3855 70.6555 51.8498 70.2695C51.1239 69.7466 50.1681 69.0299 49.048 68.1484C46.8091 66.3865 43.8687 63.9268 40.7736 60.9775C35.1843 55.6515 28.6131 48.2861 25.1027 40.2588L24.9894 40.0371L22.716 35.584L37.592 27.9873L29.5841 10.0371H12.3986Z" fill="white"/>
</svg>
