<svg width="53" height="52" viewBox="0 0 53 52" fill="none" xmlns="http://www.w3.org/2000/svg">
<path d="M27.2952 42.3841C28.6758 42.3986 29.7952 43.5297 29.7952 44.9105V48.9105C29.7951 50.2911 28.6758 51.3986 27.2952 51.3841C25.9146 51.3695 24.7952 50.2384 24.7952 48.8577V44.8577C24.7953 43.4772 25.9147 42.3697 27.2952 42.3841ZM11.2288 39.2542C12.1989 38.2718 13.7899 38.2534 14.7825 39.2132C15.775 40.173 15.7936 41.7474 14.8235 42.7298L12.0129 45.5755C11.0428 46.5579 9.45178 46.5763 8.45923 45.6165C7.46668 44.6567 7.44809 43.0824 8.41821 42.0999L11.2288 39.2542ZM39.1858 37.2796C40.1463 36.2877 41.7376 36.2544 42.7395 37.2044L45.6418 39.9564C46.6437 40.9064 46.6775 42.4811 45.717 43.473C44.7565 44.4648 43.1652 44.4982 42.1633 43.5482L39.261 40.7962C38.2591 39.8462 38.2253 38.2715 39.1858 37.2796ZM27.0002 12.0003C34.7322 12.0003 41.0002 18.2683 41.0002 26.0003C41.0002 33.7322 34.7322 40.0003 27.0002 40.0003C19.2683 40.0003 13.0003 33.7322 13.0002 26.0003C13.0002 18.2683 19.2683 12.0003 27.0002 12.0003ZM27.0002 17.0003C22.0297 17.0003 18.0002 21.0297 18.0002 26.0003C18.0003 30.9708 22.0297 35.0003 27.0002 35.0003C31.9707 35.0003 36.0002 30.9708 36.0002 26.0003C36.0002 21.0297 31.9708 17.0003 27.0002 17.0003ZM6.96704 24.7581C8.34764 24.7402 9.48133 25.8453 9.49927 27.2259C9.51701 28.6063 8.4129 29.7401 7.03247 29.7581L3.03247 29.8099C1.65197 29.8277 0.51818 28.7226 0.500244 27.3421C0.482504 25.9617 1.58754 24.8278 2.96802 24.8099L6.96704 24.7581ZM49.9504 23.1995C51.331 23.1816 52.4647 24.2867 52.4827 25.6673C52.5004 27.0477 51.3963 28.1815 50.0159 28.1995L46.0159 28.2513C44.6353 28.2691 43.5016 27.164 43.4836 25.7835C43.4659 24.4031 44.571 23.2692 45.9514 23.2513L49.9504 23.1995ZM8.78931 8.29522C9.7498 7.30334 11.3411 7.269 12.343 8.21905L15.2454 10.972C16.247 11.922 16.2808 13.4958 15.3206 14.4876C14.3601 15.4795 12.7687 15.5138 11.7668 14.5638L8.8645 11.8108C7.86291 10.8609 7.8292 9.28706 8.78931 8.29522ZM41.8235 7.85382C42.7936 6.87138 44.3846 6.85302 45.3772 7.8128C46.3697 8.77253 46.3882 10.3469 45.4182 11.3294L42.6077 14.1761C41.6377 15.1583 40.0465 15.1765 39.054 14.2171C38.0614 13.2573 38.0428 11.682 39.0129 10.6995L41.8235 7.85382ZM27.2112 0.383113C28.5918 0.397591 29.7111 1.52884 29.7112 2.90948V6.90948C29.7112 8.29018 28.5918 9.39756 27.2112 9.38311C25.8305 9.36865 24.7112 8.23746 24.7112 6.85675V2.85675C24.7114 1.47626 25.8307 0.368651 27.2112 0.383113Z" fill="#3A4453"/>
</svg>
