<svg width="104" height="96" viewBox="0 0 104 96" fill="none" xmlns="http://www.w3.org/2000/svg">
<path d="M40 0C46.037 4.32137e-07 51.1124 4.10338 52.5752 9.67773C57.6339 6.17636 64.6213 6.67893 69.1348 11.1797L88.2529 30.2461C91.6772 33.6611 92.8001 38.5099 91.6191 42.8652C97.9173 43.7206 102.787 49.0942 102.842 55.6377L103.065 82.5693L103.064 82.9053C102.943 89.9567 97.2009 95.6553 90.1074 95.6846C77.5084 95.7362 57.6809 95.8326 39.1855 95.9795L39.1904 95.9736L37 96H28V95.9873C14.2693 96.33 0 87.9889 0 71.8896V12.9873C0 5.8076 5.8203 2.93661e-07 13 0H40ZM13 10C11.33 10 10 11.3436 10 12.9873V71.8896C10 76.4771 11.8304 79.6462 14.6006 81.9053C17.5933 84.3457 21.9737 85.8958 26.709 85.9951C31.4486 86.0944 35.6559 84.7279 38.4648 82.4766C41.0044 80.4411 43 77.2464 43 71.8896V12.9834C43 11.3432 41.6736 10 40 10H13ZM84.127 52.792L51.1172 85.8916C65.7989 85.7931 80.1661 85.7251 90.0664 85.6846C91.7357 85.6776 93.0787 84.3166 93.0654 82.6523L92.8418 55.7207C92.8278 54.0522 91.4738 52.7316 89.8291 52.7451L84.127 52.792ZM26.5 70.1768C29.1135 70.1768 31.2324 72.1661 31.2324 74.6191C31.2322 77.072 29.1134 79.0605 26.5 79.0605C23.8866 79.0605 21.7678 77.072 21.7676 74.6191C21.7676 72.1661 23.8865 70.1768 26.5 70.1768ZM62.0742 18.2607C60.8928 17.0825 59.0015 17.0935 57.8398 18.2578L53 23.1104V69.8428L81.1982 41.5684C82.3674 40.3956 82.3648 38.4965 81.1914 37.3262L62.0742 18.2607Z" fill="white"/>
</svg>
